<svg xmlns="http://www.w3.org/2000/svg" width="89.261" height="61.6" viewBox="0 0 89.261 61.6">
  <g id="Group_3141" data-name="Group 3141" transform="translate(-691 -1013)">
    <g id="Group_3135" data-name="Group 3135" transform="translate(-67.42 20.373)">
      <g id="Rectangle_6" data-name="Rectangle 6" transform="translate(821.42 1013.395)">
        <path id="Path_6295" data-name="Path 6295" d="M69.976,13.69c0,.255-8.754,0-8.754,0,0,11.738-8.8,18.622-8.8,18.622S65.615,54.523,65.774,54.523,78.682,32.312,78.682,32.312,70.055,24.927,69.976,13.69ZM65.543,36.219a3.112,3.112,0,1,1,3.135-3.1,3.112,3.112,0,0,1-3.135,3.1Z" transform="translate(-52.42 -13.69)" fill="#ccc" fill-rule="evenodd"/>
      </g>
      <g id="Rectangle_7" data-name="Rectangle 7" transform="translate(826.712 1012.846)">
        <rect id="Rectangle_489" data-name="Rectangle 489" width="15.12" height="2.141" transform="translate(0 0)" fill="#ccc"/>
      </g>
      <g id="Rectangle_7-2" data-name="Rectangle 7" transform="translate(826.712 1002.5)">
        <rect id="Rectangle_490" data-name="Rectangle 490" width="15.12" height="6.916" transform="translate(0)" fill="#ccc"/>
      </g>
    </g>
    <path id="Path_6298" data-name="Path 6298" d="M51.92-32.032a16.255,16.255,0,0,1,8.1,5.588,15.547,15.547,0,0,1,2.992,9.724q0,8.008-6.16,12.364T38.9,0H8.272V-61.6H37.136q10.912,0,16.808,4.268a13.712,13.712,0,0,1,5.9,11.748,15.428,15.428,0,0,1-2.112,8.1A14.46,14.46,0,0,1,51.92-32.032ZM19.712-52.624V-35.64H35.9q5.984,0,9.2-2.156a7.1,7.1,0,0,0,3.212-6.292,7.186,7.186,0,0,0-3.212-6.38q-3.212-2.156-9.2-2.156ZM38.192-8.976q13.288,0,13.288-8.888T38.192-26.752H19.712V-8.976Z" transform="translate(682.729 1074.6)" fill="#ccc"/>
  </g>
</svg>
