<svg xmlns="http://www.w3.org/2000/svg" width="88.52" height="62.48" viewBox="0 0 88.52 62.48">
  <g id="Group_3140" data-name="Group 3140" transform="translate(-392.744 -1016)">
    <path id="Path_6300" data-name="Path 6300" d="M34.76.88Q22,.88,14.872-6.292T7.744-26.84V-61.6h11.44v34.32q0,18.128,15.664,18.128,15.576,0,15.576-18.128V-61.6H61.688v34.76q0,13.376-7.084,20.548T34.76.88Z" transform="translate(385 1077.6)" fill="#ccc"/>
    <g id="Group_3137" data-name="Group 3137" transform="translate(11.592 102.711)">
      <g id="Ellipse_1" data-name="Ellipse 1" transform="translate(385.002 911.849)">
        <circle id="Ellipse_33" data-name="Ellipse 33" cx="5.5" cy="5.5" r="5.5" transform="matrix(0.999, -0.05, 0.05, 0.999, 58.406, 22.714)" fill="#ccc"/>
      </g>
      <g id="Ellipse_1-2" data-name="Ellipse 1" transform="translate(385.002 911.849)">
        <path id="Path_6293" data-name="Path 6293" d="M64.17,7.44a5.5,5.5,0,1,0,5.5,5.5,5.5,5.5,0,0,0-5.5-5.5Z" fill="#ccc" fill-rule="evenodd"/>
      </g>
      <g id="Rectangle_6" data-name="Rectangle 6" transform="translate(385.002 911.849)">
        <rect id="Rectangle_485" data-name="Rectangle 485" width="11" height="11" transform="translate(58.67 52.43)" fill="#ccc"/>
      </g>
      <g id="Rectangle_6-2" data-name="Rectangle 6" transform="translate(385.002 911.849)">
        <rect id="Rectangle_486" data-name="Rectangle 486" width="11" height="11" transform="translate(58.67 37.43)" fill="#ccc"/>
      </g>
      <g id="Rectangle_6-3" data-name="Rectangle 6" transform="translate(385.002 911.849)">
        <rect id="Rectangle_487" data-name="Rectangle 487" width="11" height="11" transform="translate(73.67 52.43)" fill="#ccc"/>
      </g>
      <g id="Rectangle_6-4" data-name="Rectangle 6" transform="translate(385.002 911.849)">
        <rect id="Rectangle_488" data-name="Rectangle 488" width="11" height="11" transform="translate(73.67 37.43)" fill="#ccc"/>
      </g>
    </g>
  </g>
</svg>
